<svg class="icon-phone" width = '40px' height = '40px' xmlns="http://www.w3.org/2000/svg">
    <path d="M7.46603 0.115505C5.29666 0.52631 2.04651 3.14618 0.699463 5.58002C0.0650972 6.71943 -0.075873 7.47904 0.0337704 9.16102C0.394028 14.8736 3.27608 21.0512 8.28053 26.8878C9.24382 28.0117 12.0867 30.8021 13.2223 31.7399C18.9316 36.4681 24.6957 39.1267 30.405 39.677C32.0653 39.8398 32.7545 39.7701 33.8118 39.3437C34.8456 38.9252 35.7384 38.2896 36.8818 37.1657C38.0644 35.9953 38.7692 35.0884 39.3253 34.0265C39.85 33.0266 39.9988 32.546 39.9988 31.8484C40.0066 31.3214 39.9832 31.2206 39.7012 30.709C39.1452 29.6704 38.0722 28.531 36.1691 26.9575C34.0937 25.2445 31.6346 23.6866 30.1857 23.1672C28.9875 22.7332 28.2748 22.8572 27.4133 23.6323C26.8103 24.1749 26.4578 24.6477 25.4476 26.2289C24.4764 27.7481 23.8421 28.6162 23.5601 28.7945C23.3643 28.9185 23.333 28.9108 22.3227 28.4147C18.1954 26.3994 13.4494 21.7023 11.3975 17.602L10.8885 16.5711L11.0451 16.3618C11.2644 16.0672 12.0084 15.5247 13.4573 14.6178C15.1097 13.5869 15.7206 13.1373 16.2297 12.5793C17.0207 11.7189 17.146 11.0213 16.7074 9.82762C15.8851 7.57205 12.5566 3.09967 10.3794 1.30142C9.18117 0.317032 8.30402 -0.0395164 7.46603 0.115505ZM8.53114 2.36332C9.43961 2.96015 11.1156 4.77391 12.5018 6.65742C13.6844 8.26965 14.8043 10.1454 14.9531 10.781C15.0471 11.1841 14.5537 11.5716 11.4132 13.5559C9.86252 14.5403 9.05586 15.4549 8.90706 16.385C8.84441 16.8036 9.06369 17.4392 9.69806 18.6716C11.6247 22.4076 15.4308 26.4769 19.425 29.0658C20.4588 29.7324 22.4402 30.7168 22.9727 30.8331C23.7403 30.9958 24.4608 30.7013 25.2439 29.9184C25.7608 29.3914 26.0506 28.9883 27.4055 26.8878C27.8284 26.2289 28.3609 25.5003 28.5881 25.2678C28.9405 24.9035 29.0188 24.857 29.2146 24.9035C30.1936 25.136 33.1069 26.9885 35.1275 28.6628C36.1378 29.4999 37.2264 30.5928 37.6728 31.2051C37.9861 31.6469 38.0252 31.7399 37.9861 32.0035C37.8843 32.7941 36.8975 34.3288 35.7071 35.5457C34.8221 36.4603 34.1486 36.9797 33.3106 37.3982C32.7623 37.6695 32.6605 37.6928 31.9087 37.7238C29.0658 37.84 25.1343 36.7781 21.5161 34.9179C12.118 30.0812 4.1454 20.3768 2.38327 11.6336C2.117 10.3004 1.95253 8.75796 1.99952 8.00611C2.06217 7.02947 2.65738 5.94432 3.80081 4.75065C4.84242 3.6655 6.18947 2.68887 7.21542 2.27031C7.82629 2.02227 8.02991 2.03777 8.53114 2.36332Z" />
</svg>
