<svg  width="40" height="28" viewBox="0 0 40 28" fill="none" xmlns="http://www.w3.org/2000/svg">
<path d="M3.68144 0.125736C1.95589 0.481503 0.495803 1.91213 0.128831 3.60013C-0.0429436 4.39492 -0.0429436 22.8645 0.128831 23.6593C0.495803 25.3624 1.96369 26.7855 3.72048 27.1412C4.54031 27.3077 35.4597 27.3077 36.2795 27.1412C38.0363 26.7855 39.5042 25.3624 39.8712 23.6593C40.0429 22.8645 40.0429 4.39492 39.8712 3.60013C39.5042 1.897 38.0363 0.473932 36.2795 0.118168C35.4831 -0.0407925 4.46223 -0.0407925 3.68144 0.125736ZM36.4357 2.07109C37.0447 2.3436 37.5756 2.85832 37.8567 3.44117L38.0753 3.90291V13.6297V23.3565L37.8567 23.8182C37.5756 24.4011 37.0447 24.9158 36.4357 25.1883L35.9672 25.4002H20H4.03279L3.55651 25.1883C2.9553 24.9158 2.42436 24.4011 2.14328 23.8106L1.92465 23.3565V13.6297V3.90291L2.14328 3.44874C2.50244 2.69936 3.11146 2.18464 3.95471 1.92727C4.20457 1.85158 7.46828 1.83644 20.1171 1.84401L35.9672 1.85915L36.4357 2.07109Z" fill="#FFF"/>
<path d="M3.82203 3.60708C3.34574 3.85687 3.22082 4.53812 3.58779 4.92417C3.70491 5.05285 6.38303 7.0739 9.53743 9.41287C12.6918 11.7518 15.2684 13.6972 15.2606 13.7426C15.2606 13.7805 12.6762 15.7031 9.52962 18.0042C6.37522 20.3054 3.73614 22.2583 3.66587 22.3415C3.45506 22.5838 3.41602 22.9622 3.55656 23.2575C3.72052 23.5829 4.04846 23.7722 4.45447 23.7722C4.73556 23.7722 4.89952 23.6738 6.03948 22.8411C6.74219 22.3264 9.45935 20.3356 12.0906 18.413C14.7219 16.4903 16.8925 14.9159 16.9159 14.9159C16.9393 14.9159 17.3532 15.2111 17.8373 15.5669C18.9069 16.3692 19.188 16.4979 19.8205 16.5055C20.492 16.5055 20.8121 16.3617 21.8896 15.582C22.3971 15.2187 22.8343 14.9159 22.8578 14.9159C22.889 14.9159 24.1383 15.8091 25.653 16.8991C35.8345 24.2718 35.124 23.7722 35.4988 23.7722C36.139 23.7722 36.5607 23.1893 36.3577 22.5989C36.2952 22.4475 36.2249 22.2886 36.1859 22.2583C36.1546 22.228 33.5234 20.3205 30.3456 18.0194C27.1677 15.7183 24.5365 13.8107 24.5052 13.7805C24.4662 13.7502 27.0662 11.8275 30.2831 9.50371C33.4921 7.17987 36.2249 5.1891 36.3498 5.07556C36.5216 4.90903 36.5841 4.77278 36.6153 4.47757C36.6465 4.1218 36.6309 4.07639 36.3733 3.82659C36.1468 3.60708 36.0453 3.56166 35.7721 3.56166C35.5925 3.56166 35.3739 3.59951 35.288 3.64492C35.1943 3.69791 31.7276 6.18827 27.5815 9.18579C23.4355 12.1833 19.9688 14.651 19.8829 14.6661C19.7736 14.6812 17.7358 13.2128 13.09 9.76864C3.82203 2.88041 4.65748 3.48597 4.32174 3.48597C4.16558 3.49354 3.93915 3.53895 3.82203 3.60708Z" fill="#FFF" />
</svg>
